<svg width="253" height="54" viewBox="0 0 253 54" fill="none" xmlns="http://www.w3.org/2000/svg">
<g clip-path="url(#clip0_94_696)">
<path d="M22.7011 37.7866V48.8315H33.746V37.7866H22.7011Z" fill="white"/>
<path d="M11.6561 15.668V26.7129H22.701V15.668H11.6561Z" fill="white"/>
<path d="M22.7011 15.668V26.7129H33.746V15.668H22.7011Z" fill="white"/>
<path d="M33.7458 26.7124V37.7573H44.7907V26.7124H33.7458Z" fill="white"/>
<path d="M33.7458 37.7578V48.8027H44.7907V37.7578H33.7458Z" fill="white"/>
<path d="M33.7692 4.65187V15.6968H44.8141V4.65187H33.7692Z" fill="white"/>
<path d="M11.7025 26.7188V37.7637H22.7474V26.7188H11.7025Z" fill="white"/>
</g>
<path d="M83.067 1.97818H89.0218V45.5H83.067V35.34L83.1111 35.3106C82.6994 36.9966 82.1162 38.5257 81.3614 39.898C80.6164 41.2605 79.7244 42.4221 78.6854 43.3827C77.6562 44.3433 76.4946 45.0834 75.2007 45.6029C73.9068 46.1224 72.5198 46.3822 71.0397 46.3822C69.7066 46.3822 68.4421 46.1911 67.2462 45.8088C66.0503 45.4265 64.9427 44.8776 63.9233 44.162C62.9136 43.4464 61.9971 42.5838 61.1737 41.5742C60.3602 40.5548 59.6691 39.4128 59.1006 38.1483C58.532 36.8741 58.0909 35.4919 57.7773 34.002C57.4734 32.5121 57.3215 30.9388 57.3215 29.2822C57.3215 27.6257 57.4734 26.0524 57.7773 24.5625C58.0909 23.0725 58.532 21.6953 59.1006 20.4308C59.6691 19.1664 60.3602 18.0244 61.1737 17.005C61.9971 15.9855 62.9136 15.1229 63.9233 14.4172C64.9427 13.7016 66.0503 13.1527 67.2462 12.7704C68.4421 12.3881 69.7066 12.197 71.0397 12.197C72.5198 12.197 73.9068 12.4567 75.2007 12.9763C76.4946 13.4958 77.6562 14.2358 78.6854 15.1965C79.7244 16.1571 80.6164 17.3186 81.3614 18.6812C82.1162 20.0437 82.6994 21.5679 83.1111 23.2539L83.067 23.2392V1.97818ZM83.067 29.2822C83.067 28.0472 82.9641 26.9003 82.7582 25.8417C82.5524 24.7732 82.2534 23.8028 81.8613 22.9304C81.4692 22.0482 80.984 21.2689 80.4057 20.5926C79.8274 19.9064 79.1657 19.333 78.4207 18.8723C77.6856 18.4018 76.8671 18.044 75.9653 17.799C75.0733 17.5539 74.1078 17.4314 73.0687 17.4314C71.4808 17.4314 70.0742 17.6911 68.8489 18.2106C67.6334 18.7204 66.614 19.4751 65.7906 20.475C64.9672 21.4748 64.3399 22.7148 63.9086 24.1949C63.4871 25.6652 63.2763 27.361 63.2763 29.2822C63.2763 31.2035 63.4871 32.9042 63.9086 34.3843C64.3399 35.8546 64.9672 37.0946 65.7906 38.1042C66.6238 39.1041 67.6481 39.8637 68.8636 40.3832C70.0791 40.893 71.4808 41.1478 73.0687 41.1478C74.1078 41.1478 75.0733 41.0253 75.9653 40.7802C76.8671 40.5352 77.6856 40.1823 78.4207 39.7216C79.1657 39.2511 79.8274 38.6777 80.4057 38.0013C80.984 37.3152 81.4692 36.531 81.8613 35.6488C82.2534 34.7666 82.5524 33.7962 82.7582 32.7375C82.9641 31.6691 83.067 30.5173 83.067 29.2822ZM98.9433 29.3999C98.9433 31.1839 99.1786 32.7914 99.6491 34.2226C100.12 35.6537 100.791 36.8741 101.663 37.8837C102.546 38.8835 103.609 39.653 104.854 40.1921C106.109 40.7312 107.515 41.0008 109.074 41.0008C110.142 41.0008 111.127 40.8685 112.029 40.6038C112.931 40.3391 113.745 39.947 114.47 39.4275C115.205 38.8982 115.852 38.2464 116.411 37.472C116.979 36.6878 117.46 35.7811 117.852 34.7519H123.807C123.385 36.5653 122.728 38.1925 121.836 39.6334C120.944 41.0743 119.856 42.2947 118.572 43.2945C117.298 44.2943 115.842 45.0589 114.205 45.5882C112.578 46.1175 110.819 46.3822 108.927 46.3822C106.535 46.3822 104.359 45.9705 102.399 45.1471C100.448 44.3237 98.7718 43.1622 97.3701 41.6624C95.9782 40.1627 94.8999 38.3591 94.1354 36.2516C93.3708 34.1441 92.9885 31.8063 92.9885 29.2381C92.9885 26.6896 93.3659 24.3713 94.1207 22.2835C94.8754 20.1858 95.9439 18.392 97.326 16.9021C98.7081 15.4023 100.365 14.2457 102.296 13.4321C104.237 12.6087 106.383 12.197 108.736 12.197C111.059 12.197 113.157 12.5989 115.029 13.4027C116.901 14.1966 118.499 15.3288 119.822 16.7991C121.145 18.2695 122.165 20.0486 122.88 22.1364C123.596 24.2243 123.954 26.5621 123.954 29.1499C123.954 29.5224 123.944 29.8949 123.924 30.2674C123.914 30.63 123.89 31.027 123.851 31.4583H97.6789V26.3122H121.042L117.896 31.4142C117.925 31.0809 117.945 30.7379 117.955 30.385C117.974 30.0321 117.984 29.6792 117.984 29.3264C117.984 27.4443 117.778 25.778 117.367 24.3272C116.965 22.8667 116.372 21.6365 115.587 20.6367C114.803 19.6369 113.838 18.8772 112.691 18.3577C111.554 17.8382 110.245 17.5784 108.765 17.5784C107.246 17.5784 105.878 17.848 104.663 18.3871C103.457 18.9262 102.428 19.7006 101.575 20.7102C100.732 21.7198 100.08 22.9451 99.6197 24.386C99.1688 25.827 98.9433 27.4443 98.9433 29.2381V29.3999ZM130.9 45.5V12.344C130.9 10.3444 131.15 8.57997 131.65 7.05083C132.15 5.51188 132.885 4.22779 133.855 3.19856C134.836 2.16933 136.046 1.39005 137.487 0.86073C138.928 0.331411 140.594 0.0667521 142.486 0.0667521C143.3 0.0667521 144.138 0.115763 145.001 0.213785C145.873 0.302006 146.78 0.444138 147.721 0.640182V5.78634C146.858 5.6099 146.064 5.47757 145.339 5.38935C144.613 5.30113 143.937 5.25702 143.31 5.25702C142.182 5.25702 141.192 5.40406 140.34 5.69812C139.497 5.99219 138.796 6.43329 138.237 7.02142C137.678 7.60955 137.257 8.34962 136.973 9.24162C136.698 10.1238 136.561 11.158 136.561 12.344V15.7111H136.855V45.5H130.9ZM147.735 13.0792V18.0783H125.974V13.0792H147.735ZM157.881 13.0792V45.5H151.926V13.0792H157.881ZM158.028 1.97818V9.32984H151.779V1.97818H158.028ZM168.543 27.9589V45.5H162.588V13.0792H168.543V22.6069L168.499 22.6363C168.881 21.0092 169.435 19.5535 170.16 18.2695C170.895 16.9756 171.778 15.8826 172.807 14.9906C173.846 14.0888 175.017 13.3978 176.321 12.9175C177.634 12.4371 179.051 12.197 180.57 12.197C182.423 12.197 184.079 12.545 185.54 13.2409C187 13.9369 188.236 14.9416 189.245 16.2551C190.255 17.5588 191.029 19.1517 191.568 21.0337C192.107 22.9059 192.377 25.0183 192.377 27.3708V45.5H186.422V27.3708C186.422 25.7436 186.251 24.3223 185.907 23.1068C185.564 21.8816 185.045 20.8621 184.349 20.0486C183.653 19.2252 182.785 18.6076 181.746 18.1959C180.707 17.7842 179.492 17.5784 178.1 17.5784C177.1 17.5784 176.169 17.6862 175.306 17.9019C174.454 18.1077 173.669 18.4116 172.954 18.8135C172.248 19.2154 171.621 19.7153 171.072 20.3132C170.523 20.9014 170.062 21.5826 169.69 22.357C169.317 23.1216 169.033 23.9743 168.837 24.9154C168.641 25.8466 168.543 26.8611 168.543 27.9589ZM202.154 29.3999C202.154 31.1839 202.389 32.7914 202.859 34.2226C203.33 35.6537 204.001 36.8741 204.874 37.8837C205.756 38.8835 206.82 39.653 208.064 40.1921C209.319 40.7312 210.726 41.0008 212.284 41.0008C213.353 41.0008 214.338 40.8685 215.24 40.6038C216.141 40.3391 216.955 39.947 217.68 39.4275C218.416 38.8982 219.063 38.2464 219.621 37.472C220.19 36.6878 220.67 35.7811 221.062 34.7519H227.017C226.596 36.5653 225.939 38.1925 225.047 39.6334C224.155 41.0743 223.067 42.2947 221.783 43.2945C220.508 44.2943 219.053 45.0589 217.416 45.5882C215.789 46.1175 214.029 46.3822 212.137 46.3822C209.746 46.3822 207.569 45.9705 205.609 45.1471C203.658 44.3237 201.982 43.1622 200.58 41.6624C199.189 40.1627 198.11 38.3591 197.346 36.2516C196.581 34.1441 196.199 31.8063 196.199 29.2381C196.199 26.6896 196.576 24.3713 197.331 22.2835C198.086 20.1858 199.154 18.392 200.536 16.9021C201.918 15.4023 203.575 14.2457 205.506 13.4321C207.447 12.6087 209.594 12.197 211.946 12.197C214.269 12.197 216.367 12.5989 218.239 13.4027C220.111 14.1966 221.709 15.3288 223.032 16.7991C224.356 18.2695 225.375 20.0486 226.091 22.1364C226.806 24.2243 227.164 26.5621 227.164 29.1499C227.164 29.5224 227.154 29.8949 227.135 30.2674C227.125 30.63 227.1 31.027 227.061 31.4583H200.889V26.3122H224.253L221.106 31.4142C221.136 31.0809 221.155 30.7379 221.165 30.385C221.185 30.0321 221.195 29.6792 221.195 29.3264C221.195 27.4443 220.989 25.778 220.577 24.3272C220.175 22.8667 219.582 21.6365 218.798 20.6367C218.014 19.6369 217.048 18.8772 215.901 18.3577C214.764 17.8382 213.456 17.5784 211.976 17.5784C210.456 17.5784 209.089 17.848 207.873 18.3871C206.668 18.9262 205.638 19.7006 204.786 20.7102C203.943 21.7198 203.291 22.9451 202.83 24.386C202.379 25.827 202.154 27.4443 202.154 29.2381V29.3999ZM238.753 37.5602V45.5H231.255V37.5602H238.753Z" fill="white" fill-opacity="0.98"/>
<defs>
<clipPath id="clip0_94_696">
<rect width="33.3275" height="44.4367" fill="white" transform="translate(11.5099 4.5)"/>
</clipPath>
</defs>
</svg>
