<svg width="756" height="237" viewBox="0 0 756 237" fill="none" xmlns="http://www.w3.org/2000/svg">
<path d="M39.5431 90.5428L103.647 90.366L100.341 112.412L186.426 112.912L206.223 136.591L179.432 159.554L93.3468 159.055L90.0458 181.068H25.9684L39.5431 90.5428Z" fill="white"/>
<path d="M111.774 34.0819L47.7637 33.6341L50.2272 17.2058L90.0925 0L114.305 17.2058L111.774 34.0819Z" fill="white"/>
<path d="M105.299 107.8L169.098 108.248L183.481 18.5653L119.575 18.565L116.242 39.1061L23.2848 39.1227L0 61.5245L16.2906 85.7653L108.843 85.5532L105.299 107.8Z" fill="white"/>
<path d="M161.6 164.257L97.8015 163.809L95.1788 181.747L119.355 197.412L159.045 181.747L161.6 164.257Z" fill="white"/>
<path d="M314.419 149.957H316.61V147.766V65.9639V63.7723H314.419H302.725H300.533V65.9639V98.8304H245.541H243.35V101.022V112.708V114.899H245.541H300.533V147.766V149.957H302.725H314.419ZM239.694 149.957H241.886V147.766V65.9639V63.7723H239.694H228H225.808V65.9639V147.766V149.957H228H239.694ZM424.837 149.957H427.029V147.766V65.9639V63.7723H424.837H371.161C365.267 63.7723 359.675 64.8785 354.406 67.0997L354.406 67.0997L354.395 67.1046C349.223 69.3194 344.661 72.4404 340.72 76.4584C336.778 80.3994 333.701 84.9959 331.49 90.2306C329.264 95.4237 328.158 100.976 328.158 106.865V147.766V149.957H330.349H342.043H344.235V147.766V106.865C344.235 101.861 345.426 97.3387 347.792 93.2512C350.252 89.1345 353.527 85.9002 357.641 83.5201L357.654 83.5129L357.666 83.5056C361.762 81.0642 366.245 79.8414 371.161 79.8414H410.952V110.516H347.773H345.582V112.708V124.394V126.585H347.773H410.952V147.766V149.957H413.143H424.837ZM531.245 137.325L531.251 137.316L531.256 137.306C533.565 133.376 534.715 129.056 534.715 124.394C534.715 119.735 533.567 115.45 531.251 111.589C528.964 107.698 525.899 104.591 522.073 102.298C518.202 99.9761 513.871 98.8304 509.136 98.8304H461.424C458.819 98.8304 456.602 97.9373 454.671 96.0826C452.815 94.1522 451.921 91.9381 451.921 89.3358C451.921 86.7236 452.82 84.5544 454.67 82.7058C456.614 80.7635 458.83 79.8414 461.424 79.8414H526.677H528.868V77.6499V65.9639V63.7723H526.677H461.424C456.759 63.7723 452.437 64.9217 448.504 67.2288L448.495 67.2341L448.486 67.2395C444.661 69.5332 441.596 72.6407 439.308 76.5315C436.993 80.3922 435.844 84.6774 435.844 89.3358C435.844 93.9983 436.995 98.3177 439.304 102.249L439.309 102.258L439.314 102.267C441.604 106.081 444.669 109.144 448.486 111.432L448.495 111.438L448.504 111.443C452.437 113.75 456.759 114.899 461.424 114.899H509.136C511.821 114.899 514.018 115.83 515.863 117.737L515.876 117.751L515.889 117.764C517.739 119.612 518.638 121.781 518.638 124.394C518.638 127.002 517.741 129.22 515.876 131.154C514.04 132.983 511.838 133.888 509.136 133.888H438.036H435.844V136.08V147.766V149.957H438.036H509.136C513.871 149.957 518.202 148.812 522.073 146.49C525.89 144.202 528.955 141.139 531.245 137.325ZM630.245 149.957H632.436V147.766V65.9639V63.7723H630.245H618.551H616.359V65.9639V98.8304H561.367H559.175V101.022V112.708V114.899H561.367H616.359V147.766V149.957H618.551H630.245ZM555.52 149.957H557.711V147.766V65.9639V63.7723H555.52H543.826H541.634V65.9639V147.766V149.957H543.826H555.52Z" fill="white" stroke="white" stroke-width="4.38305"/>
<path d="M659.619 110.545H698.334C700.235 110.545 701.763 111.226 702.919 112.587C704.1 113.948 704.537 115.592 704.228 117.518L702.033 131.309C701.724 133.21 700.774 134.853 699.182 136.24C697.59 137.601 695.843 138.282 693.943 138.282H675.76L674.758 144.792H699.143L698.065 151.495H651.876L655.381 129.383C655.689 127.482 656.627 125.852 658.193 124.491C659.786 123.104 661.545 122.41 663.471 122.41H682.309L683.195 116.632H658.656L659.619 110.545ZM702.649 144.754H728.652L729.692 138.166H703.689L708.042 110.545H752.613L751.573 117.21H731.926L730.809 124.298H745.602C747.528 124.298 749.056 124.991 750.186 126.378C751.316 127.739 751.727 129.37 751.419 131.271L749.339 144.522C749.031 146.449 748.093 148.092 746.527 149.453C744.96 150.815 743.214 151.495 741.287 151.495H701.57L702.649 144.754Z" fill="white"/>
<path d="M659.619 61.4554H698.334C700.235 61.4554 701.763 62.136 702.919 63.4971C704.1 64.8582 704.537 66.5019 704.228 68.428L702.033 82.2193C701.724 84.1197 700.774 85.7634 699.182 87.1502C697.59 88.5113 695.843 89.1919 693.943 89.1919H675.76L674.758 95.7023H699.143L698.065 102.405H651.876L655.381 80.2931C655.689 78.3926 656.627 76.7618 658.193 75.4007C659.786 74.0139 661.545 73.3205 663.471 73.3205H682.309L683.195 67.542H658.656L659.619 61.4554ZM748.337 61.4554C750.238 61.4554 751.753 62.1488 752.883 63.5356C754.038 64.8968 754.462 66.5404 754.154 68.4666L749.878 95.4326C749.596 97.3588 748.658 99.0024 747.066 100.364C745.499 101.725 743.766 102.405 741.865 102.405H708.504C706.604 102.405 705.076 101.725 703.92 100.364C702.79 99.0024 702.379 97.3588 702.687 95.4326L706.963 68.4666C707.246 66.5404 708.171 64.8968 709.737 63.5356C711.329 62.1488 713.076 61.4554 714.976 61.4554H748.337ZM728.69 96.3186L733.236 67.465H728.19L723.644 96.3186H728.69Z" fill="white"/>
</svg>
