<svg width="533" height="140" viewBox="0 0 533 140" fill="none" xmlns="http://www.w3.org/2000/svg">
<path d="M91.4189 115.957H93.6105V113.766V31.9639V29.7723H91.4189H79.7249H77.5334V31.9639V64.8304H22.541H20.3495V67.0219V78.7078V80.8993H22.541H77.5334V113.766V115.957H79.7249H91.4189ZM16.694 115.957H18.8856V113.766V31.9639V29.7723H16.694H5H2.80847V31.9639V113.766V115.957H5H16.694ZM201.837 115.957H204.029V113.766V31.9639V29.7723H201.837H148.161C142.267 29.7723 136.675 30.8785 131.406 33.0997L131.395 33.1046C126.224 35.3193 121.661 38.4402 117.72 42.4579C113.779 46.399 110.701 50.9957 108.49 56.2305C106.264 61.4236 105.158 66.9759 105.158 72.8648V113.766V115.957H107.349H119.043H121.235V113.766V72.8648C121.235 67.8611 122.426 63.339 124.791 59.2516C127.251 55.1347 130.527 51.9003 134.641 49.5201L134.654 49.5129L134.666 49.5056C138.762 47.0642 143.245 45.8414 148.161 45.8414H187.952V76.5163H124.773H122.582V78.7078V90.3937V92.5853H124.773H187.952V113.766V115.957H190.143H201.837ZM308.245 103.325L308.251 103.316L308.256 103.306C310.565 99.3755 311.715 95.0562 311.715 90.3937C311.715 85.7352 310.567 81.45 308.251 77.5894C305.964 73.6986 302.899 70.5912 299.073 68.2976C295.202 65.9761 290.871 64.8304 286.136 64.8304H238.424C235.819 64.8304 233.602 63.9371 231.67 62.0824C229.815 60.152 228.921 57.938 228.921 55.3358C228.921 52.7236 229.82 50.5544 231.67 48.7058C233.614 46.7635 235.83 45.8414 238.424 45.8414H303.677H305.868V43.6499V31.9639V29.7723H303.677H238.424C233.759 29.7723 229.437 30.9217 225.504 33.2288L225.495 33.2341L225.486 33.2395C221.661 35.5329 218.596 38.6399 216.309 42.53C213.993 46.3911 212.844 50.6768 212.844 55.3358C212.844 59.9983 213.995 64.3177 216.304 68.2487L216.309 68.2578L216.314 68.2668C218.604 72.0812 221.669 75.1438 225.486 77.4321L225.495 77.4376L225.504 77.4429C229.437 79.75 233.759 80.8993 238.424 80.8993H286.136C288.821 80.8993 291.018 81.8303 292.863 83.7373L292.876 83.7507L292.889 83.7638C294.739 85.6123 295.638 87.7815 295.638 90.3937C295.638 93.0017 294.741 95.22 292.876 97.1534C291.04 98.9824 288.839 99.8883 286.136 99.8883H215.036H212.844V102.08V113.766V115.957H215.036H286.136C290.871 115.957 295.202 114.812 299.073 112.49C302.89 110.202 305.955 107.139 308.245 103.325ZM407.245 115.957H409.436V113.766V31.9639V29.7723H407.245H395.551H393.359V31.9639V64.8304H338.367H336.175V67.0219V78.7078V80.8993H338.367H393.359V113.766V115.957H395.551H407.245ZM332.52 115.957H334.711V113.766V31.9639V29.7723H332.52H320.826H318.634V31.9639V113.766V115.957H320.826H332.52Z" fill="white" stroke="white" stroke-width="4.38305"/>
<path d="M437.091 76.0501H475.807C477.707 76.0501 479.236 76.7307 480.391 78.0918C481.573 79.453 482.009 81.0966 481.701 83.0228L479.505 96.814C479.197 98.7144 478.247 100.358 476.654 101.745C475.062 103.106 473.316 103.787 471.415 103.787H453.233L452.231 110.297H476.616L475.537 117H429.348L432.854 94.8878C433.162 92.9874 434.099 91.3566 435.666 89.9954C437.258 88.6086 439.018 87.9152 440.944 87.9152H459.781L460.667 82.1367H436.128L437.091 76.0501ZM480.122 110.258H506.125L507.165 103.671H481.162L485.515 76.0501H530.086L529.046 82.7146H509.399L508.282 89.8028H523.075C525.001 89.8028 526.529 90.4962 527.659 91.883C528.789 93.2442 529.2 94.875 528.892 96.7755L526.811 110.027C526.503 111.953 525.566 113.597 523.999 114.958C522.433 116.319 520.686 117 518.76 117H479.043L480.122 110.258Z" fill="white"/>
<path d="M437.091 27.0501H475.807C477.707 27.0501 479.236 27.7307 480.391 29.0918C481.573 30.453 482.009 32.0966 481.701 34.0228L479.505 47.814C479.197 49.7144 478.247 51.3581 476.654 52.7449C475.062 54.1061 473.316 54.7866 471.415 54.7866H453.233L452.231 61.297H476.616L475.537 68H429.348L432.854 45.8878C433.162 43.9874 434.099 42.3566 435.666 40.9954C437.258 39.6086 439.018 38.9152 440.944 38.9152H459.781L460.667 33.1367H436.128L437.091 27.0501ZM525.81 27.0501C527.71 27.0501 529.225 27.7435 530.355 29.1304C531.511 30.4915 531.935 32.1351 531.627 34.0613L527.351 61.0273C527.068 62.9535 526.131 64.5971 524.538 65.9583C522.972 67.3194 521.238 68 519.338 68H485.977C484.077 68 482.548 67.3194 481.393 65.9583C480.263 64.5971 479.852 62.9535 480.16 61.0273L484.436 34.0613C484.719 32.1351 485.643 30.4915 487.21 29.1304C488.802 27.7435 490.548 27.0501 492.449 27.0501H525.81ZM506.163 61.9134L510.709 33.0597H505.662L501.117 61.9134H506.163Z" fill="white"/>
</svg>
