<svg width="757" height="199" viewBox="0 0 757 199" fill="none" xmlns="http://www.w3.org/2000/svg">
<path d="M39.5434 91.3389L103.647 91.1621L100.341 113.208L186.426 113.708L206.223 137.387L179.432 160.35L93.3472 159.851L90.0462 181.864H25.9688L39.5434 91.3389Z" fill="white"/>
<path d="M111.774 34.8778L47.7637 34.43L50.2272 18.0017L90.0925 0.795898L114.305 18.0016L111.774 34.8778Z" fill="white"/>
<path d="M105.299 108.596L169.098 109.044L183.481 19.3616L119.575 19.3613L116.242 39.9024L23.2848 39.919L0 62.3208L16.2906 86.5616L108.843 86.3495L105.299 108.596Z" fill="white"/>
<path d="M161.601 165.052L97.8024 164.605L95.1797 182.542L119.356 198.208L159.046 182.542L161.601 165.052Z" fill="white"/>
<path d="M314.42 150.753H316.611V148.562V66.76V64.5684H314.42H302.726H300.534V66.76V99.6265H245.542H243.351V101.818V113.504V115.695H245.542H300.534V148.562V150.753H302.726H314.42ZM239.695 150.753H241.887V148.562V66.76V64.5684H239.695H228.001H225.809V66.76V148.562V150.753H228.001H239.695ZM424.838 150.753H427.03V148.562V66.76V64.5684H424.838H371.162C365.268 64.5684 359.676 65.6746 354.407 67.8958L354.396 67.9007C349.225 70.1154 344.662 73.2363 340.721 77.254C336.78 81.1951 333.702 85.7918 331.491 91.0266C329.265 96.2197 328.159 101.772 328.159 107.661V148.562V150.753H330.35H342.044H344.236V148.562V107.661C344.236 102.657 345.427 98.1351 347.792 94.0477C350.252 89.9308 353.528 86.6964 357.642 84.3162L357.655 84.309L357.667 84.3017C361.763 81.8603 366.246 80.6375 371.162 80.6375H410.953V111.312H347.774H345.583V113.504V125.19V127.381H347.774H410.953V148.562V150.753H413.144H424.838ZM531.246 138.121L531.252 138.111L531.257 138.102C533.566 134.171 534.716 129.852 534.716 125.19C534.716 120.531 533.568 116.246 531.252 112.385C528.965 108.494 525.9 105.387 522.074 103.093C518.203 100.772 513.872 99.6265 509.137 99.6265H461.425C458.82 99.6265 456.603 98.7332 454.671 96.8785C452.816 94.9481 451.922 92.7341 451.922 90.1319C451.922 87.5197 452.821 85.3505 454.671 83.5019C456.615 81.5596 458.831 80.6375 461.425 80.6375H526.678H528.869V78.446V66.76V64.5684H526.678H461.425C456.76 64.5684 452.438 65.7178 448.505 68.0249L448.496 68.0302L448.487 68.0356C444.662 70.329 441.597 73.436 439.31 77.3261C436.994 81.1872 435.845 85.4729 435.845 90.1319C435.845 94.7944 436.996 99.1138 439.305 103.045L439.31 103.054L439.315 103.063C441.605 106.877 444.67 109.94 448.487 112.228L448.496 112.233L448.505 112.239C452.438 114.546 456.76 115.695 461.425 115.695H509.137C511.822 115.695 514.019 116.626 515.864 118.533L515.877 118.547L515.89 118.56C517.74 120.408 518.639 122.577 518.639 125.19C518.639 127.798 517.742 130.016 515.877 131.949C514.041 133.778 511.84 134.684 509.137 134.684H438.037H435.845V136.876V148.562V150.753H438.037H509.137C513.872 150.753 518.203 149.607 522.074 147.286C525.891 144.998 528.956 141.935 531.246 138.121ZM630.246 150.753H632.437V148.562V66.76V64.5684H630.246H618.552H616.36V66.76V99.6265H561.368H559.176V101.818V113.504V115.695H561.368H616.36V148.562V150.753H618.552H630.246ZM555.521 150.753H557.712V148.562V66.76V64.5684H555.521H543.827H541.635V66.76V148.562V150.753H543.827H555.521Z" fill="white" stroke="white" stroke-width="4.38305"/>
<path d="M659.618 111.341H698.333C700.234 111.341 701.762 112.022 702.918 113.383C704.099 114.744 704.536 116.388 704.227 118.314L702.032 132.105C701.723 134.005 700.773 135.649 699.181 137.036C697.589 138.397 695.842 139.078 693.942 139.078H675.759L674.757 145.588H699.142L698.064 152.291H651.875L655.38 130.179C655.688 128.278 656.626 126.648 658.192 125.286C659.785 123.9 661.544 123.206 663.47 123.206H682.308L683.194 117.428H658.655L659.618 111.341ZM702.648 145.55H728.651L729.691 138.962H703.688L708.041 111.341H752.612L751.572 118.006H731.925L730.808 125.094H745.601C747.527 125.094 749.055 125.787 750.185 127.174C751.315 128.535 751.726 130.166 751.418 132.066L749.338 145.318C749.03 147.245 748.092 148.888 746.526 150.249C744.959 151.61 743.213 152.291 741.286 152.291H701.569L702.648 145.55Z" fill="white"/>
<path d="M659.618 62.251H698.333C700.234 62.251 701.762 62.9316 702.918 64.2927C704.099 65.6538 704.536 67.2975 704.227 69.2236L702.032 83.0149C701.723 84.9153 700.773 86.559 699.181 87.9458C697.589 89.3069 695.842 89.9875 693.942 89.9875H675.759L674.757 96.4979H699.142L698.064 103.201H651.875L655.38 81.0887C655.688 79.1882 656.626 77.5574 658.192 76.1963C659.785 74.8095 661.544 74.1161 663.47 74.1161H682.308L683.194 68.3376H658.655L659.618 62.251ZM748.336 62.251C750.237 62.251 751.752 62.9444 752.882 64.3312C754.037 65.6924 754.461 67.336 754.153 69.2622L749.877 96.2282C749.595 98.1544 748.657 99.798 747.065 101.159C745.498 102.521 743.765 103.201 741.864 103.201H708.503C706.603 103.201 705.075 102.521 703.919 101.159C702.789 99.798 702.378 98.1544 702.686 96.2282L706.962 69.2622C707.245 67.336 708.17 65.6924 709.736 64.3312C711.328 62.9444 713.075 62.251 714.975 62.251H748.336ZM728.689 97.1142L733.235 68.2606H728.189L723.643 97.1142H728.689Z" fill="white"/>
<path d="M563.197 18.8223L586.858 19.1196C588.02 19.1342 588.948 19.5618 589.644 20.4026C590.356 21.2435 590.61 22.2514 590.407 23.4262L588.959 31.838C588.756 32.9971 588.162 33.9943 587.179 34.8297C586.195 35.6493 585.123 36.0519 583.961 36.0373L572.848 35.8976L572.186 39.8688L587.089 40.0561L586.379 44.1444L558.15 43.7897L560.462 30.3026C560.665 29.1434 561.251 28.154 562.218 27.3341C563.202 26.4988 564.283 26.0885 565.46 26.1033L576.973 26.2479L577.559 22.7232L562.561 22.5348L563.197 18.8223ZM591.76 24.4087L592.65 19.1923L616.829 19.4962L615.939 24.7125L605.849 44.389L590.781 44.1997L600.871 24.5232L591.76 24.4087ZM627.486 44.6609L618.163 44.5437C617.048 44.5297 616.175 44.0792 615.542 43.1922C614.91 42.2894 614.696 41.2114 614.9 39.9581L617.974 22.0537L628.687 22.1883L627.696 27.9214L630.333 27.9545L629.8 31.056L627.163 31.0229L625.359 41.5259L628.019 41.5593L627.486 44.6609ZM655.24 32.2234L653.054 44.9821L642.318 44.8473L644.656 31.2427L642.042 31.2099L639.705 44.8144L628.969 44.6795L633.239 19.7023L643.975 19.8372L642.576 28.1083L651.946 28.2261C653.045 28.2399 653.911 28.6432 654.545 29.4361C655.194 30.2135 655.426 31.1426 655.24 32.2234ZM694.552 25.7002L685.205 25.5828L684.416 30.2588L693.763 30.3762L692.873 35.5926L683.526 35.4751L681.824 45.3672L664.638 48.8953L669.543 20.1585L695.441 20.4839L694.552 25.7002ZM724.8 20.8528L723.887 26.0453L712.751 25.9054L711.962 30.5814L722.486 30.7136L721.597 35.9299L711.049 35.7974L710.261 40.4028L721.421 40.543L720.507 45.8297L692.82 45.4818L697.089 20.5046L724.8 20.8528ZM741.311 42.9828L742.658 35.1585L737.878 35.0984L736.532 42.9228L741.311 42.9828ZM739.733 24.2664L738.641 30.634L742.384 30.6811L743.477 24.3135L739.733 24.2664ZM755.283 42.3107C755.097 43.3915 754.544 44.3186 753.624 45.092C752.719 45.8498 751.726 46.2219 750.643 46.2083L722.155 45.8504L726.424 20.8968L753.217 21.2099C754.316 21.2237 755.182 21.6192 755.816 22.3963C756.466 23.1737 756.697 24.1107 756.511 25.2072L755.851 28.99C755.529 30.8855 754.305 32.0553 752.181 32.4996C755.283 32.9938 756.588 34.6663 756.097 37.5173L755.283 42.3107Z" fill="white"/>
</svg>
